/* XPM */
static char *_ba356186421442687ae9f4fedb001c9XsqQDUWufHwiPqiI[] = {
/* columns rows colors chars-per-pixel */
"64 64 146 2 ",
"   c None",
".  c #000000",
"X  c #0B0500",
"o  c #0E0901",
"O  c #100700",
"+  c #140B01",
"@  c #1A0E01",
"#  c #1C1301",
"$  c #231501",
"%  c #281702",
"&  c #241B02",
"*  c #2A1B02",
"=  c #321E02",
"-  c #2E2202",
";  c #342203",
":  c #3C2503",
">  c #372903",
",  c #3C2C04",
"<  c #3E3004",
"1  c #442B04",
"2  c #492F05",
"3  c #433405",
"4  c #4C3105",
"5  c #4E3C06",
"6  c #533506",
"7  c #543B06",
"8  c #5A3A07",
"9  c #5D3D08",
"0  c #603F08",
"q  c #544107",
"w  c #594507",
"e  c #5A4608",
"r  c #5F4908",
"t  c #644109",
"y  c #6B460A",
"u  c #644D0A",
"i  c #6E480B",
"p  c #744C0C",
"a  c #784F0D",
"s  c #67500A",
"d  c #6C540B",
"f  c #7C520E",
"g  c #755B0D",
"h  c #7A5F0E",
"j  c #7C610E",
"k  c #82560E",
"l  c #87590F",
"z  c #865910",
"x  c #8B5C10",
"c  c #905F11",
"v  c #81650F",
"b  c #866810",
"n  c #896B11",
"m  c #936212",
"M  c #9A6713",
"N  c #9D6914",
"B  c #937313",
"V  c #9C7B15",
"C  c #A36D15",
"Z  c #A77016",
"A  c #AB7317",
"S  c #A17E16",
"D  c #AF7518",
"F  c #B07617",
"G  c #B27718",
"H  c #B57918",
"J  c #BB7D1A",
"K  c #A58216",
"L  c #AA8617",
"P  c #AC8718",
"I  c #AE8918",
"U  c #BF801B",
"Y  c #B38D19",
"T  c #B7901A",
"R  c #BC941B",
"E  c #C4831B",
"W  c #C9871C",
"Q  c #CC8A1D",
"!  c #D38E1E",
"~  c #C39A1C",
"^  c #C99E1D",
"/  c #D6901F",
"(  c #D9921F",
")  c #CCA21E",
"_  c #D1A51F",
"`  c #D79120",
"'  c #DD9621",
"]  c #E19720",
"[  c #E59A21",
"{  c #EB9E22",
"}  c #D3A720",
"|  c #D6A920",
" . c #D9AC21",
".. c #DEB022",
"X. c #EEA123",
"o. c #EEA023",
"O. c #F0A223",
"+. c #F1A224",
"@. c #F1A324",
"#. c #F2A324",
"$. c #F3A424",
"%. c #F4A524",
"&. c #F5A524",
"*. c #F5A624",
"=. c #F6A624",
"-. c #F6A625",
";. c #F7A725",
":. c #F4A524",
">. c #F8A725",
",. c #F8A725",
"<. c #F8A825",
"1. c #F9A825",
"2. c #F9A825",
"3. c #E0B122",
"4. c #E2B222",
"5. c #E2B322",
"6. c #E4B423",
"7. c #E5B523",
"8. c #E6B623",
"9. c #E3B323",
"0. c #E8B724",
"q. c #E8B824",
"w. c #EAB924",
"e. c #EBBA24",
"r. c #ECBB24",
"t. c #EFBD25",
"y. c #EDBC25",
"u. c #F1BE25",
"i. c #F1BF25",
"p. c #F2C026",
"a. c #F3C126",
"s. c #F4C126",
"d. c #F7C427",
"f. c #F4C226",
"g. c #F8C427",
"h. c #F9C527",
"j. c #FAC627",
"k. c #FBC727",
"l. c #FAC627",
"z. c #FCC827",
"x. c #FCC827",
"c. c #FCC828",
"v. c #FDC928",
"b. c #FEC928",
"n. c #FFCA28",
"m. c #FFCA28",
/* pixels */
"                                                    . . . . . . . . . . .                                                       ",
"                                            . . . . . . . + : . $ ; . . . . . . .                                               ",
"                                        . . . . t C E ' o.>.[ . f 1.&.{ ` J c 1 . . . .                                         ",
"                                    . . . t J [ >.1.1.1.1.>.{ . f 1.1.1.>.1.&.&.! C : . . .                                     ",
"                                . . . k / 1.1.1.>.1.1.1.1.1.[ . f >.1.1.1.>.>.1.1.1.$.U 6 . . .                                 ",
"                              . . p ( >.1.1.1.1.1.[ E C f t ; . O 4 i x F ! +.1.1.1.1.1.&.J : . .                               ",
"                          . . * J 1.1.1.1.1.[ D 9 . . . . . - 3 , @ . . . . + k E $.1.1.1.1.{ x . .                             ",
"                        . . t [ 1.1.1.1.( l . . . g Y | r.h.n.n.n.n.p.9.^ K 7 . . : A X.1.1.1.1.E $ . .                         ",
"                      . . x +.>.1.1.X.m . . w R t.n.n.n.n.n.n.n.n.n.n.n.n.n.n...V - . : J %.1.1.1.' 1 . .                       ",
"                    . . $ [ 1.1.1.E ; . e ) n.n.n.n.n.n.n.n.n.n.n.n.n.n.n.n.n.n.n.p.L & . p [ >.1.1.F . . .                     ",
"                  . . 6 . 7 [ &.m . # T h.n.n.n.n.n.n.n.n.d.S , w ^ n.n.n.n.n.n.n.n.n.q.v . ; Q 1.E X $ 4 . .                   ",
"                . . l &.M . 6 f . e 9.n.n.n.n.n.n.n.n.n.n.V . % X .  .n.n.n.n.n.n.n.n.n.x.R + . m . $ ! [ : .                   ",
"                . t +.1.>.M . . j p.n.n.n.n.n.n.n.n.n.n.s.& ; +.E . S n.n.n.n.n.n.n.n.n.n.n. .> . # ! >.1.! X .                 ",
"              . $ ] 1.1.&.f . b h.n.n.n.n.n.n.x.n.q.I s . . 2 >./ . . q V } x.n.n.n.n.n.n.n.n.3., . E >.1.1.A . .               ",
"            . . H 1.1.1.N . h h.n.n.n.n.n.n.n.p.B . . . 9 x A 1.[ m y o . . 7 R h.x.n.n.n.n.n.n...- @ ! 1.1.&.y .               ",
"            . y &.1.1.W . q p.n.n.n.n.n.n.n.9.3 . 6 J { 1.1.1.1.1.1.;.o.Q m X . u ..n.n.n.n.n.n.n.) . 4 X.1.1.( X .             ",
"          . . ! 1.1.{ : + ..n.n.n.n.n.n.n.6.> . C &.1.1.1.1.&.1.1.>.1.;.1.1.[ m . ; q.n.n.n.n.n.n.n.S . m 1.1.1.m .             ",
"            E 1.>.>.M . P n.n.n.n.n.n.n.x.s . H 1.1.1.( m 9 X &.W l J { 1.1.1.1.D . T n.n.n.n.n.n.n.s.e . ! 1.1.[ + .           ",
"          &.1.1.>.[ X 5 d.n.n.n.n.n.n.n.) . f 1.1.&.C . . . . &.E . . X x ' 1.1.E . P n.n.n.n.n.n.n.n._ . a 1.1.1.c .           ",
"        . H 1.1.>.M . ~ n.n.n.n.n.n.n.n.n . / 1.>.E . q _ d . &.E . v q . . m H 4 . | n.n.n.n.n.n.n.n.n.g . ! 1.1.! . .         ",
"        . D 1.1.{ @ 3 l.n.n.n.n.n.n.n.n., $ &.1.>.i . 6.n.g . &.E . ~ x.) 5 . . . L n.n.n.n.n.n.n.n.n.n._ . x 1.1.1.4 .         ",
"      . . ' 1.1.J . I n.n.n.n.n.n.n.n.d.. t 1.1.>.# , n.n.g . &.E . ~ n.n.h.) ~ 6.n.n.n.n.n.n.n.n.n.n.n.h.5 + { 1.1.C .         ",
"      . 1 >.1.1.a . 6.n.n.n.n.n.n.n.n.h.. t 1.1.1.7 + p.n.g . &.E . ~ n.n.n.n.n.n.n.n.n.n.n.n.n.n.n.n.n.n.L . E 1.1.! . .       ",
"      . m 1.1.O.O q n.n.n.n.n.n.n.n.n.n.3 # ;.1.1.Z . v p.g . &.E . ~ n.n.n.n.n.n.n.n.n.n.n.n.n.n.n.n.n.n. .. m 1.1.O.X .       ",
"      . H >.1.! . V n.n.n.n.n.n.n.n.n.n.b . / 1.1.$.a . & - . &.E . ~ n.n.n.n.n.n.n.n.n.n.n.n.n.n.n.n.n.n.h.$ 2 1.1.1.9 .       ",
"    . . ! 1.1.J . ~ n.n.n.n.n.n.n.n.n.n.) . z 1.1.1.&.H 1 . . &.E . Y x.n.n.n.n.n.n.n.n.n.n.n.n.n.n.n.n.n.n.d . X.1.1.c .       ",
"    . . ] 1.1.M .  .n.n.n.n.n.n.n.n.n.n.x.s . G 1.1.1.1.$.W m &.E . . 3 S 3.n.n.n.n.n.n.n.n.n.n.n.n.n.n.n.n.V . ( 1.1.Z .       ",
"    . . { 1.1.l . 0.n.n.n.n.n.n.n.n.n.n.n.6.> . N O.1.1.1.1.&.1.{ J x % . . j ..n.n.n.n.n.n.n.n.n.n.n.n.n.n.I . W 1.1.H .       ",
"    . . H J J 8 . t.n.n.n.n.n.n.n.n.n.n.n.n.9.q . 1 G X.1.1.1.1.1.1.1.+.E i . . I c.n.n.n.n.n.n.n.n.n.n.n.n.T . m U J x .       ",
"    . . . . . . . s.n.n.n.n.n.n.n.n.n.n.n.n.n.s.K # . X k U [ 1.1.1.1.1.1.1.W 2 . B n.n.n.n.n.n.n.n.n.n.n.n.R . . . . . .       ",
"    . . H J J 8 . t.n.n.n.n.n.n.n.n.n.n.n.n.n.n.x.t.Y q . . . &./ J [ 1.1.1.1.{ 9 . R n.n.n.n.n.n.n.n.n.n.n.T . m J J x .       ",
"    . . { 1.&.l . 0.n.n.n.n.n.n.n.n.n.n.n.n.n.n.n.n.n.n.3.e . &.E . . k ( 1.1.1.[ & ; d.n.n.n.n.n.n.n.n.n.n.I . Q >.1.H .       ",
"    . . ] 1.1.N .  .n.n.n.n.n.n.n.n.n.n.n.n.n.n.n.n.n.n.n.g . &.E . * . . J 1.1.1.C . ~ n.n.n.n.n.n.n.n.n.n.V . ( 1.1.Z .       ",
"    . . ! 1.1.H . ~ n.n.n.n.n.n.n.n.n.n.n.n.n.n.n.n.n.n.n.g . &.E . ~ ) > . ( 1.1./ . V n.n.n.n.n.n.n.n.n.n.d . X.1.;.m .       ",
"    . . H 1.1.! . V n.n.n.n.n.n.n.n.n.n.n.h.u.n.n.n.n.n.n.g . &.E . ~ n.) . C 1.1.[ . j n.n.n.n.n.n.n.n.n.h.$ 2 ;.1.1.9 .       ",
"    . . m 1.1.o.o w n.n.n.n.n.n.n.n.n.x.L # . q } n.n.n.n.g . &.E . ~ n.6.. l 1.1.{ . g n.n.n.n.n.n.n.n.n. .. x 1.1.O.X .       ",
"    . . 2 >.1.1.a . 6.n.n.n.n.n.n.n.n.Y . 1 a . . B t.n.n.g . &.E . ~ n._ . M 1.1.[ . b n.n.n.n.n.n.n.n.n.L . E 1.1.! . .       ",
"    . . . ] 1.1.J . I n.n.n.n.n.n.n.n.3 # { &.` 9 . & V  .g . &.E . ~ ..q . ! 1.1.U . Y n.n.n.n.n.n.n.n.x.5 + { 1.1.C . .       ",
"    . . . F 1.1.{ @ 3 x.n.n.n.n.n.n.n.* ; &.1.1.$.H : . . . . &.E . 3 . . C 1.1.*.t . 9.n.n.n.n.n.n.n.n._ . x 1.1.>.6 . .       ",
"      . . 7 1.1.1.m . ~ n.n.n.n.n.n.n.B . m o.1.1.1.$.E z = . &.E . . y W 1.1.1.D . b n.n.n.n.n.n.n.n.n.g . ! 1.1./ . . .       ",
"      . . . ! &.1.] X 7 d.n.n.n.n.n.n.t.r . 1 U &.1.1.1.1.&.[ 1.[ ( { 1.1.1.&.F . < t.n.n.n.n.n.n.n.n._ . p >.1.1.x . . .       ",
"      . . . f 1.1.1.M . I n.n.n.n.n.n.n.d.L + . 6 G { &.1.1.1.1.1.1.1.1.>./ a . , ..n.n.n.n.n.n.n.n.h.e . / 1.1.[ @ . . .       ",
"      . . . . ! 1.1.X.: + ..n.n.n.n.n.n.n.n.6.B X . . t N J Q 1.+.! E N 6 . . h q.n.n.n.n.n.n.n.n.n.K . m 1.>.1.m . . .         ",
"        . 4 . i &.1.1.E . w p.n.n.n.n.n.n.n.n.n.q.T d . . . 2 1./ . . . o b _ n.n.n.n.n.n.n.n.n.n.) . 4 X.1.>.' X 1 % .         ",
"        . 2 i . J 1.1.1.M . j h.n.n.n.n.n.n.n.n.n.n.n.a.| o 2 1.! . g | p.n.n.n.n.n.n.n.n.n.n.n.3.- + / 1.1.>.i . k . .         ",
"        . . N $ $ [ 1.1.&.f . b h.n.n.n.n.n.n.n.n.n.n.n.c.+ 2 <./ . V n.n.n.n.n.n.n.n.n.n.n.n.9.3 . J 1.1.>.D . i f .           ",
"          . i C . t $.1.&.N . . j d.n.n.n.n.n.n.n.n.n.n.c.& ; @.E . K n.n.n.n.n.n.n.n.n.n.n. ., . @ ( >.>.! o = J + .           ",
"          . . J f . x &.N . 6 a . r 9.n.n.n.n.n.n.n.n.n.n.V . ; + .  .x.n.n.n.n.n.n.n.n.n.R # . c . * ! ] 1 . G z .             ",
"            . 9 ` 8 . 9 . 6 [ $.m . & T c.v.v.v.n.n.n.n.n.d.V ; q ~ n.n.n.n.v.v.v.v.v.y.b . = W 1.U . * 6 . M E X .             ",
"            . . C ! 2 . $ [ 1.,.;.E = . r } v.v.n.n.n.n.n.n.n.n.n.n.n.n.n.n.v.v.n.a.P * . i [ 1.1.1.G . . z ` 0 .               ",
"              . $ E Q 2 . x +.1.1.1.{ x . . r R a.v.n.n.n.n.n.n.n.n.n.n.n.n.v.3.K - . ; H -.1.1.>.' 4 . z ' M . .               ",
"                . 8 ` ! 8 . i [ 1.1.,.1.` z . . X h T  .q.l.n.n.n.n.a.0.) K w . . ; A X.1.1.1.1.E = . c ' J X .                 ",
"                . . a ' ` a . = J ;.1.1.1.,.[ D 8 . . . . . , w 5 & . . . . X f E +.1.1.1.1.X.c . @ A ' W ; .                   ",
"                  . . x ' ' C @ . a ' ,.1.,.;.<.-.[ U C f 9 % . . : y x F Q o.1.1.1.1.1.-.J , . 6 E ] Q 2 . .                   ",
"                    . . z ' ' W y . . x ` 1.<.<.1.1.1.1.1.1.[ . f 1.<.<.1.1.1.1.,.,.$.E 8 . + m ` ' Q 4 . .                     ",
"                      . . f ` ' ' G 6 . . i J { 1.1.1.1.1.1.[ . f 1.1.1.1.1.1.1.` C 1 . . f Q ' ' E 1 . .                       ",
"                        . . 8 W ' ' ' G t . . . y Z W [ +.,.{ . f 1.-.{ ` J m 2 . . $ z E ' ' ' A $ . .                         ",
"                          . . % Z ' ' ' ' W N 8 . . . . . $ 2 . * 1 X . . . . @ a D ` ' ' ' ! f . .                             ",
"                              . . t E ' ' ' ' ' Q H N a 9 ; . . . @ 2 y z C U ` ' ' ' ' ' Z ; . .                               ",
"                                . . . a U ' ' ' ' ' ' ' ' ] ' ' ' ' ' ' ' ' [ ' ' ' ` A 2 . . .                                 ",
"                                    . . . 8 Z Q ' ' ' ' ' ' ' ' ' ' ' ' ' ' ' ' E x ; . . .                                     ",
"                                        . . . . 8 m D W ` ' ' ' ' ' ' Q U Z k ; . . . .                                         ",
"                                            . . . . . . . o , 6 4 = . . . . . . .                                               ",
"                                                    . . . . . . . . . . .                                                       "
};
