/* XPM */
static char *_a44eb4562684b318e4b53dbb5183dfaDyCdFOBrUZVvRvEW[] = {
/* columns rows colors chars-per-pixel */
"64 64 53 1 ",
"  c None",
". c black",
"X c #0B110F",
"o c #151D1C",
"O c #171E1D",
"+ c #182221",
"@ c #1B2423",
"# c #1D2625",
"$ c #1E2C2B",
"% c #212F2E",
"& c #233331",
"* c #253130",
"= c #263534",
"- c #2F3C3A",
"; c #303E3C",
": c #30403F",
"> c #3E463E",
", c #324140",
"< c #364342",
"1 c #364544",
"2 c #3A4847",
"3 c #3D5150",
"4 c #425251",
"5 c #435452",
"6 c #4A5455",
"7 c #4A5B5B",
"8 c #56515B",
"9 c #466261",
"0 c #556D6C",
"q c #5E7272",
"w c #5C7A78",
"e c #69837B",
"r c #6D8180",
"t c #6F8584",
"y c #768C8A",
"u c #778E8F",
"i c #739596",
"p c #799797",
"a c #829697",
"s c #8D999A",
"d c #95A9AA",
"f c #95ADAE",
"g c #9BAFB0",
"h c #97B1B2",
"j c #A4B8BA",
"k c #A4BDBD",
"l c #A8B9B8",
"z c #AEBBBC",
"x c #A9BFBF",
"c c #BECBCC",
"v c #D5DDDD",
"b c #DCE3E4",
"n c #F4F4F4",
/* pixels */
"                                                                ",
"                                                                ",
"                                                                ",
"                                                                ",
"                                                                ",
"                             eeeeee666                          ",
"                           eelvvvvvvvv66                        ",
"                          elvnnnnnnnnnvl6                       ",
"                         evvnnnnnnnnnnnvv6                      ",
"                        elvvnnnnnnnnnnnvvl6                     ",
"                       elvvvnnnnnnnnnnnvvvl6                    ",
"                       elvvnnnnnnnnnnnnnvvl6                    ",
"                      ellvvnnnnnnnnnnnnnvvll6                   ",
"                      ellvnnnnnnnnnnnnnnnvll6                   ",
"                      ellvnnnnnnnnnnnnnnnvll.                   ",
"                      ellvvnnnnnnnnnnnnnvvll.                   ",
"                      ellvvnnnnnnnnnnnnnvvll.                   ",
"                      6lllvvnnnnnnnnnnnvvlll.                   ",
"                      6elavvvvvnnnnnvvvvvell.                   ",
"                      66lavnnvlvvnnvlvnnvae6.                   ",
"                      66elee66elvvvle66eele66                   ",
"                      66ee6>>>6lllll6>>>6ee66                   ",
"                       6e6>>>>6ellle6>>>>6e.                    ",
"                       6e6>>>>6evvve6>>>>6e.                    ",
"                       .ee6>>>elvvvle6>>6ee.                    ",
"                       .ele66llvnlnvll66ele.                    ",
"                        .llvvnnnelennnvvll.                     ",
"                        .elvvvnn6e6nnvvvle.                     ",
"                         .>>6lvvvvvvvl6>>.                      ",
"                          .e>v6nenel6e>e.                       ",
"                          .ee66e6e6e66ee.                       ",
"                        :55..l6vevel6e..55,                     ",
"                       6:lvl5...666...7lvlq,                    ",
"                       4..u7lvvl6e6lvnl,u.d,                    ",
"                       4cc.=e9eevbv99ee%.6bd,                   ",
"                      6rbe.63lvlpnilnl3$  6b6,                  ",
"                      6cb5 6l9eebnv99el$   6b6                  ",
"                      4br. 60lvvv9vnnl3$   .qb,                 ",
"                     64k.  6a9el4e6d9<a$   .6d,                 ",
"                     6t5.   6el=6e6$le$     .6d.                ",
"                     6.bc.  66ee6e6ee6$      &dq6               ",
"                     11ab. 6gce:eei,ex$      &qa26              ",
"                      1rkb.6ve::eei,;v$      .7qa.              ",
"                       <akb*ve::-i:;ev$      .6aq.              ",
"                        .kb7.vla,;alvii6      .66               ",
"                        .2qkd.;0jtw=eni6                        ",
"                         .bke.:o#+%=eb6                         ",
"                         .w6.f:    $if6                         ",
"                          ..6f1    *beo                         ",
"                           *6fe:   1n6o                         ",
"                           X6fe;  +pnho                         ",
"                           #;6e*  +lrno                         ",
"                            o6eo  +q8e6                         ",
"                            O6eo  ogi6                          ",
"                            O6eo  ozyo                          ",
"                            O6eo  obyo                          ",
"                            oeeo  obyo                          ",
"                            666o  obyo                          ",
"                           oy6fo  ybyo                          ",
"                                  ybzo                          ",
"                                  ossz6                         ",
"                                  osnsb6                        ",
"                                                                ",
"                                                                "
};
