/* XPM */
static char *bf0a730c4bda4c01d3007a84d65b082fyafuAHpXG68hyMBe[] = {
/* columns rows colors chars-per-pixel */
"64 64 217 2 ",
"   c #3D2D1D",
".  c #252426",
"X  c #2A2526",
"o  c #2D2827",
"O  c #25262C",
"+  c #2B2A2C",
"@  c #352621",
"#  c #332B25",
"$  c #3B2C23",
"%  c #352D2A",
"&  c #3A2E2A",
"*  c #3B3026",
"=  c #35312B",
"-  c #3C322D",
";  c #272730",
":  c #262A33",
">  c #2C2D33",
",  c #2E2E38",
"<  c #322E33",
"1  c #302F39",
"2  c #2E3135",
"3  c #2E323B",
"4  c #343234",
"5  c #3B3433",
"6  c #3E3937",
"7  c #33343B",
"8  c #3B3639",
"9  c #35383D",
"0  c #3C3A3C",
"q  c #452E1D",
"w  c #412F22",
"e  c #433325",
"r  c #4A3424",
"t  c #4D3A26",
"y  c #44352B",
"u  c #49352B",
"i  c #45392E",
"p  c #4C3A2C",
"a  c #523A26",
"s  c #533828",
"d  c #533D2C",
"f  c #583E2C",
"g  c #423631",
"h  c #443A34",
"j  c #4C3C33",
"k  c #433C3B",
"l  c #4B3E3A",
"z  c #533E32",
"x  c #3F403D",
"c  c #54422D",
"v  c #5B422D",
"b  c #5D492F",
"n  c #4E4134",
"m  c #46413C",
"M  c #4C423C",
"N  c #544233",
"B  c #5A4533",
"V  c #564935",
"C  c #5D4A35",
"Z  c #54453B",
"A  c #59473B",
"S  c #55493C",
"D  c #5C4B3C",
"F  c #61452B",
"G  c #60442D",
"H  c #614632",
"J  c #684634",
"K  c #634B35",
"L  c #6A4D33",
"P  c #634D3A",
"I  c #694E3C",
"U  c #675137",
"Y  c #65513D",
"T  c #6B533C",
"R  c #71543C",
"E  c #74593E",
"W  c #7B5A3E",
"Q  c #2F3141",
"!  c #343641",
"~  c #353943",
"^  c #3B3C43",
"/  c #3B3D49",
"(  c #423D42",
")  c #463F46",
"_  c #3D4145",
"`  c #3E414A",
"'  c #3F4253",
"]  c #434244",
"[  c #4C4443",
"{  c #4D4844",
"}  c #43444B",
"|  c #4A464B",
" . c #45484E",
".. c #4C4A4D",
"X. c #524643",
"o. c #544B44",
"O. c #5A4D43",
"+. c #534D4C",
"@. c #5A4E4A",
"#. c #5E5143",
"$. c #55514D",
"%. c #5C524C",
"&. c #444652",
"*. c #494751",
"=. c #464954",
"-. c #4C4C54",
";. c #454A5B",
":. c #4B4E5A",
">. c #514E53",
",. c #514F58",
"<. c #4F5056",
"1. c #4E515C",
"2. c #545254",
"3. c #5B5554",
"4. c #575854",
"5. c #5C5956",
"6. c #53545C",
"7. c #5A565B",
"8. c #56595D",
"9. c #5B5A5D",
"0. c #614E42",
"q. c #684F41",
"w. c #645343",
"e. c #6B5543",
"r. c #675844",
"t. c #6D5A45",
"y. c #63554B",
"u. c #69574B",
"i. c #65594C",
"p. c #6B5B4C",
"a. c #745B43",
"s. c #795D44",
"d. c #735D4A",
"f. c #615653",
"g. c #635A54",
"h. c #6A5C53",
"j. c #675A5A",
"k. c #625D5C",
"l. c #715F57",
"z. c #5F605F",
"x. c #7B6144",
"c. c #75614C",
"v. c #7B634B",
"b. c #7F694D",
"n. c #6F6257",
"m. c #64615E",
"M. c #6B635D",
"N. c #746555",
"B. c #7D6752",
"V. c #7E6953",
"C. c #73645B",
"Z. c #7B6A5C",
"A. c #7E705C",
"S. c #4E5361",
"D. c #545662",
"F. c #595762",
"G. c #565963",
"H. c #5B5C63",
"J. c #515668",
"K. c #565B69",
"L. c #5B5D6A",
"P. c #5B5E70",
"I. c #625E63",
"U. c #615F6A",
"Y. c #5E6166",
"T. c #5E616C",
"R. c #5E6272",
"E. c #646264",
"W. c #6B6564",
"Q. c #6D6965",
"!. c #64646B",
"~. c #69656B",
"^. c #66686D",
"/. c #6B6A6C",
"(. c #706663",
"). c #746A62",
"_. c #796F66",
"`. c #736E6D",
"'. c #7A6F6C",
"]. c #6F706F",
"[. c #75716C",
"{. c #79726D",
"}. c #636572",
"|. c #696771",
" X c #666A74",
".X c #6B6C73",
"XX c #606579",
"oX c #656B7B",
"OX c #6C6E7A",
"+X c #716E73",
"@X c #6D7174",
"#X c #6D717B",
"$X c #737275",
"%X c #7A7574",
"&X c #797876",
"*X c #74747B",
"=X c #7B767A",
"-X c #76797D",
";X c #7A7B7E",
":X c #82664B",
">X c #856A4C",
",X c #836B54",
"<X c #846D5A",
"1X c #8C7358",
"2X c #93785A",
"3X c #837366",
"4X c #957C61",
"5X c #987C61",
"6X c #827C7B",
"7X c #89837E",
"8X c #6B6E83",
"9X c #767983",
"0X c #7B7B82",
"qX c #797987",
"wX c #7F8189",
"eX c #8C8886",
"rX c #84848B",
/* pixels */
">.8.-.] > ..&XQ.m.E.W.^.W./.Q.Q.E.m.m.m.@XT.W.d.t.#.!.}.!.!.H.H.K.H.H.L.6.] ..|.H.H.I.H.L.H.L.U.:.E.W.I.8.1.D.&.3 O M D -.6.6.6.",
"<.H.2.O.5 2.&XM.E.^.^././.^.z.Q.M.E.z.@X@XE.M.v.a.D E.T.U.U.!.U.!.T.K.T.2.^ 2.^.H.8.9.H.E.W.E..X X7.Q.k.!.D.<.` > + N +.G.Y.8.<.",
"8.5.3Xa.S 2.`.[.~./././.!.Y./.z.Q.m.2.-XM.g.N.B.t.w.g.E.!.T.!.U.L.H..XH.H.~ H.^.H.H.~.k.M.j.W..X*X..~.k.8.T.S.] > O ) -.Y.}.K.8.",
"D c.5XE P X.3.I.9.k.E.E.Y.z.^.z.9.| z.~.i.t.V.V.c.Y D o.X.>.>.>.| 8.8.2.-.4 6.8.2.>.-.+.@.+.-.-.G.7 E.-.} ~ ^ Z O.. 1 0 ` -.` ` ",
"T >X>XL K t j y 5 4 8 9 9 9 7 2 4 5 6 6 Z w.B.B.:XP a r d u e & & - h 5 = X 0 9 7 5 1 > < > 1 5 h 5 ( 5 % 5 A T B y o O : : 2 4 ",
"Y >X:Xx.L f s d N u u g # X . * j p p V Y t.V.b.4X>XG v a u r e r t t s u p p N z B - + . % l z p y u u p D a.P K B p j n M C Y ",
"n.3Xx.x.E u.u.P v v q.A Z M h N P e.c.a.t.V.V.b.c.e.P C D v c d N c a f f B P I q.p.k.} O k p.s.T E R s.R :Xs.J T V.B.c C p.U T ",
"-X[.p.a.n.`./.W.l.l.~.~.~.Q.M.n.M.W.3.O.e.p.M.M.g.@.+.-.-.X.X.+.@.k.k.j.d.g.E.I.I.E.H.} 7 ,.6XC.C.C.).C.h.w.T a.B V A g.m.4.V U ",
"~.@XM.h.~.~.|.~.~.~.!.~./.|.I.I.E.H.$.k B %.E.z.8.1.G.G.G.H.Y.Y.L.}.^.!.M.z.T.Y.z.8.^.` 7 >.OX~.T. XR.^.Y.Y.9.u.n m $.I.!.H.M C ",
"E.^.E.m.W.~.~.E.E.!.~./.W.3.j.I.I.H.@.k N ]  XH.H.T.oXG.G.J.}.}.L.L. X^.E.z.^.Y.8.<./._ 7 ,.|.U.Y.T.^.T.T.T.E.k.[ 2.E.E.E.~.m #.",
"E.@X!.I.k.7.I.I.E.!.+X+XW.f.j.U.E.H.>.[ j _ .XH.K.T.T.8.1.H.}.T.!.!.|. XR.^./.T..X^.!.` 9 ,..XH.Y.Y.T.T.Y.T.!.5...9.H.E.E.Y.m k ",
"E.~.~.I.u.t.W.I.!.E.|.~.~.k.W.U.!.H.-.) j _ ^.G.T.T.T.Y.T.^.^.@XY.-X.X/.^.Y.@X#X@X^.Y.} 7 -..X!.Y.6.D.G.D.S.H.%.X.H.9.9.E.^.0 7 ",
"8.!.~.Y.r.d.E.I.I.~.W.E.I.I.~.I.!.H.>.^ h ] *XH.Y.^.Q.^.^.^.^.$X/.*X.X^..X X@X@X@X@XH.-.4 -.%Xk.6.<.1.8.8.H.H.g.>.9.9.!.^.!._ 4 ",
"9.E.~.E.p.n.!.E.~.~.!.I.I.M.k.I.9.H.-.} 6 } ~.8.Y.^.^.@X^.^.Y.E.@X.X^..X@X.X@X@X$X$XH.-.1 -.E.2.2.<.D.^.T.T.T.$.3.9.H./.E.T.^ 2 ",
"| ~.H.E.m.~.E.!.~.~.I.E.j.W.k.9.9.H.| ^ 5 _ H.G.!.^.^.-X.XE.~.$X/.^./.@X#X@X#X@X-X.XH. .> <.8.4.8.!.T.H.6.K.F.%.@.I.H.E.!.H.7 4 ",
"7..X9.9.H.!.E.~.|.!.Y.I.I.E.j.k.5.9.] i 6 _ 9.H.!.!..X;X~./.-X/.].^.^.^.@X#X-X$X-X.X8.] - $.I.9.Q.Y.H.H.D.H.9.@.X.:.~.!.!.} 9 2 ",
"9.6.-.8.H.H.I.I.F.H.H.k.k.2.>.>...0 - e Z _ Y.E.^..X$X$X~.qX`.Q.C.u.M.W.Q.~.$X.X X X8.} h w.C.g.9.9.4.8.7.3.r.Y M 0 8.:.8.~ 7 5 ",
"7 _ } 2.-.+.@.l 8 k +.>.>...+.M g & e s 0.X.Y.9.m.E.E.m.m._.A.1Xs.e.A Z #.k.$. ...X.l 8 p a.a.0.g.$.o.O.w.r.R E K k g 4 X , > 1 ",
"+ 7 6 m l w.T p @ @ $ & # & g u u s r f U C D M l k n O.%.c.1X,XW L d u g j S Y K d j V Y 4XW C O.P D D e.L Y T t.B p u p 0.O.% ",
"] 2.$.#.O.O.A z s r r p $ j B c A Z l 0.U D D D D w.w.r.a.a.E E E J f s z H H J T T t.U <XB.Y B D D V C D K P P T L G G ,XC.[ ! ",
"9.$X6X=X.X/.~.j.I L H L P H d.w.%X*X#X+XZ.{.).C.N.a.e.b.x.W a.e.I f z N w.w.T a.T u.y.y.%.j.`.`.X.y n #.O.D B C B S H J o.Y.E.Y.",
"4.m.E.!.!..X@X`.{.N.e.T v ,XN.eX*XqX*X#X[.}.$XQ.`.N.C T c.D eX{.u.O.7.I.W.`.M.N.h.W.W.!.!.!.!.~.8 % 5 o.O.O.U P w.y.K E X.|.@X~.",
"@.g.5.!./././.^.!./.j.j.d w.>.qX+X-X~.U.~.^.Q.Q..XQ.Z C C @.rX$X(.Q.oX.X8X*X|.I.W.!.H. X^.!.!.9.5 . 7 X.X.@.Y w.%.3.P t.X.W.E.m.",
"3.k.H.!.^.|..X!.!.!.!.U.u p ,.OX!.I.!.~..XH.Q.~..X.X3.c P g.0X+X=X|.OX|..X.X#X/.I.L.9X|.!.H.!.2.0 . 1 -...@.p.y.2.+.P C m E.m.M.",
"2.9.E.!.!.^.|./.!.E.H.H.5 g F.U.!.I.~.!..XH.~.!.oX XH.n w.Q.$X-X$X$X.X.X.X X#X|.*X-XqX~.8.9.I.9.5 X : &.-.2.7.6.K.-.q.P k 4.E.Q.",
"<.H.L.!.E.Y.E.!.Y.Y.9.6.1 5 U.U.!.~.~.|.|.L.!.}..X XH.V D Q..X+X*X*X*X#X.X-X-X$X[.{.`.~.m.5.E.5.% o + ) *.>.7.F.8...t.B 7 9.k.m.",
"=.8.H.H.H.H.H.H.G.I.j.k.! 4 H.U.I.~.|.!.U.!.}. X X X<.6 D E.~./.$X&X%X-X+X*X=X%X)._.).+XE..X^.5.- & o ( ,.6.6.7.2.-.A d > 8.8.8.",
" .1.8.6.2.8.4.9.k.j.u.7.( k H.I.U.~.U.L.P.}.!.!.!..X .M C E.~.^././.`./.+X*X*X%XQ.).Q.Q./.@X!.2.y e # ^ 6.2.8.7.:.2.O.d + 8.z.8.",
"-.1.1.6.,.2.$.g.f.%.g.9.4 i H.U.~.U.L.T.L.H.:.oXK.G.` M K p.Q.Y.^.E.Q.$X$X*X%X$X[.Q./..X|.+XW.%.e   $ k 6.,.2.F.6.%.T b o 1.G.8.",
":.:.:.:.-.-.2.g.g.k.E.>.- e E.#XU.I.T.H.L.L.H. XK.&.` M v.b.n.z.k.W.$X$X*X+X$X$X=X+X*X!.$X$XQ.O.p * i l -.-.D.L.9.r.T c = } 6.K.",
"9 ~ ^ ~ ~ } } ] ( _ 8 u u c y.H.F.7.*.;.&.} ` ` } _ | i.>X>XW T %.)./.E.9.8.H.H.7.f.g.X.2. .] u u e D S ..2.<.3.u.e.L H i = 7 ` ",
": 3 7 3 4 3 , 1 2 % 5 a a K T z y & # % g j M M h n D x.2X7XW L T L N N n i - j V b K P N u - p c b Y P { ] [ S V J T T c e n - ",
"2 3 ^ ^ / ~ 9 ~ _ 5 e * j z z D O.@.@.y.w.c.x.t.w.0.N.d.C.p.g.3.$.X.l u B i h z B B M D P D M n Y U Y Y B N V C C U T T B p X...",
"> 9 G.I.I.2.-.<.-.) k J.8XK.>.9.~.*X8XoX!..XE.{ 3.0XrX9X#X|..XR.!.H.3.i N 9 | | k k 6 ^ ^ 0 6 0 m S D N c a U Z $.$.3.7.2.I. XoX",
"> ! 4.@.@.4.H.H.1.] ] oXP.D.9.E.K.P.P.R.XX}.D.] -.rXOX}.L.L.XX!.K.!.-.u i ^ } ..{ [ [ ^ ] 0 } } 0 7 = h u d D ~.*X.X|.|.*X.X}.}.",
"> 7 $.D $.G.H.H.S.m ] T.8.8.5.9.K.K.L.P.P.L.:._ } 9X}.}.}.P.R.K.K.E.>.l j ^ | -.O.o.{ } }  .7.2.} ~ + x { B 3..XK.H.K.H.H.H.F.I.",
"3 9 2.g.3.6.D.F.S._ ..H.G.3.k.H.L.K.P.K.K.H.-.` ` }.R.R.K.P.K.D.P.H.,.) i ! *.-.+.%..... .*.K.D.T.: o -.3.o.H.L.L.8.G.6.8.7.9.H.",
"2 ~ 6.%.3.6.G.8.8._ { 9.9.8.4.!.L.K.L.K.8.4.2.^ ^ #XT.R.J.R.J.L.L.U.F.) > ! -.` | ......| =.1.H.=.2 O >.3.{ F.G.D.D.H.7.7.D.I.9.",
"> ^ 2.@.3.8.D.8.G.0 h 9.4.3.3.H.K.K.J.D.8.%.8._ _ OXT.K.K.K.G.T.K.U.H.( + ~ &.` } *.*...-.:.S.:.-.> : ..>...D.D.<.K.7.F.D.2.I.k.",
"> ( 2.3.7.8.6.6.:.0 - g.#.%.9.H.H.H.F.8.G.4.D.=.] #XS.K.H.K.K.Y.H.L.H.^ + ~ ` ` &.-.-...:.6.1.:.:.7 + } H.-.G.2.:.H.F.7.,.D.k.h.",
": 0 g.$.7.D.6.,.=.( h g.O.O.2.9.T.9.3.2.H.7.:.} } .XD.D.H.D.H.K.6.G.F.( : 9 } ` &.-.3.6.6.1.&.:.:.7 + ..~.-.D.8.6.H.9.3.>.H.3.i.",
"2 ] 3.$.2.6.:.:.:.( 5 E.O.%.4.8.H.9.7.7.H.J.S.( {  X-.4.8.9.H.G.1.9.X.8 , ^ *.} &.>.k.3.4.-.' =.:.~ : ..I.-.8.F.7.H.H.6.9.E.f.h.",
"O 6 5.2.2.,.D.9.K.k 6 $X7.3...8.6.-X7.6.8.D.) V w.I.} } -.| >.>.) ) k 8 4 ^ :. .*.2.m.3.2.-.&.=.' Q ; ] %.y.H.K.K.!.K.D.T.L.P.2.",
"% k $...6.-./ { h w j 9.......] 1.=.` ~ 7 5 5 P P Z m k 6 4 0 7 ( 4 o u D ( ^ 7 ~ =.-. .*.` / ~ ! < y p N 0.o.) | | 8 ~ ~ ! ~ m ",
"i n k 4 8 h u r a q a u - 5 8 6 5 O o o & d w.T B f P u p z N A z j r K I D y.M 0 _ 7 3 9 8 5 h j e e e r T P P P B u - 7 5 l B ",
"N P U N J v F L s v D B A D O.A h * e r r P V.T J J T H I I e.J I H I E s.s.E d.3.| + } X.j u B c u V D d.r.w.0.0.P q.r.t.y.Z p ",
"e.a.e.p.i.u.j.w.L I D O.y.j.g.f.4   w a d y.k.3.f.y.0.y.(.I.k.f.f.q.q.u.,Xx.d.O.%.( > +.p c n w.g.M.k.W.`.+XI.7.I./.j.k.M.>.1 ! ",
"t.<XM./.|.|.!.7.f.O.+.3.2.H.H.J.3 # e v D @.;.-.D.;.) ,.*.| &.*.&.>.+.2.3.%.3.7.H.} + y.p.Z.W.I.F.H.I.I.H.6.2.6.D.8.H.8.7.] , ] ",
"I h.~.!./.@X1.D.9.+.8.H.>.5.2.S.7 @ d Y 3.,.&.6.6.-.-.*.*.;.:.F.:. .-.-.-.@.3.H.U.-.5 w.7XqXP.D.H.H.F.H.7.-.6.7.6.7.6.<.<.^ : ` ",
"T C.^.^.T.Y.8.D.8.4.D.9.>.7.2.H.[ $ p %.7.;.>.H.*.>.>.-.:.,.D.,.,.| -.:.:.9.k.I.L.-.5 y.rXR.,.,.D.H.F.6.2.-.>.2.6.,.6.-.D.~ : _ ",
"s.N.~.I.E.E.m.8.D.Y.8.7.2.8.6.9.X.  & F.F.-.6.2.+.o.>.-.:.D.D.,.6.:.:.D.H.8.H.I.L.2.u j.0XK.D.D.D.H.6.6.6.>.>.,.>.*.-.-.D.~ O ~ ",
"H t.E.U.m.n.Q.8.G.9.6.,.2.E.3.n.A y g 8.D.-.6.@.+.>.<.<.6.:.D.6.:.&.-.1.:.1.F.H.L.&.j I.*XU.L.J.D.K.6.,.>.X.| >.) | 7.2.6.~ O ] ",
"L T 9.E.m.Q.$X8.2.6.2.2.I.9.5.%.g w g >.1.6.$.%.>.2.<.1.<.G.D.&.;.:.1.:.:.:.H.H.K.7 u ..L.L.G.,.:.D.8.>.%.D ( ) &.2.2.<.=.~ O 6 ",
"P e.+.E.$X&X^...<.-.2.4.4.2.5.2.| u u >.,.,.@.3.H.:.;.<.<.S.:.=.-.:.:.:.1.G.K.D.L.0 z l |.F.D.:.,.-.>.%.e.C h k -...-.-.-.3 X 5 ",
"x.b.{ E./.^.%.i.o...4.4.4.9.5.2.m f v q.f.,.-.K.1.:.=.-.;.=.&.&.:.=.;.:.D.J.D.1.1.8 N j H. XH.J.F.>.@.T P c j k | <.-.7.-.> % k ",
"T Y V X.#.i.c.a.D M { ..] ..] ] u B P t.l.f.3.K.H.:.;.;.=.=.;.&.&.;.S.' ;.;.&.&.6 M H z k -.K.F.G.3.w.I K v r M | 9.-.>.[ - - Z ",
"c Y C Y T a.a.E B N y & & & $ y K T s.,X:Xe.p [ l 5 8 , 3 9 ! ! ! ~ ~ Q _ 6 6 Z I d.s.G r $ 7 ~ 0 S P J C v H u i i h j j u e V ",
"U x.T v.x.W T v c c s e r z s J s.v.<X,X1Xs.J s e r g ( &.;.S.=.;.;.G.' ^ - f P e.1Xe.I z z y h S Y w.P C c C b C C P T ,X#.D e.",
"D u.e.T r.e.U L L T P K f I T e.,X<X<Xd.,Xe.s.f d D 2.H.OXOXOX}.oXoXoXR. .y R t.w.Z.0.j.I.I.j.j.3X{.Q.k.I.k.2.6 p P M h Z M O.w.",
"l ..f.r.V 3.n.3X_.Q.3.@.I.k.r.j.Q.6XeX%X+X`.h.j Z N 6.T.T.T.T.K.T.K.K.G.9 h r.'.|.0X*X#X+XH..X~.[.I.T.K.|.U.T.9 h B 0 ^ 4 7 ^ { ",
"..k.9.%.x T.wXT.Y.T.R.T.!.^.g.T.R.R.oXXXXX|.%X3.l k 6.T.D.K.G.K.F.F.F.H.~ 4 | *XwX8XU.U.!.T.|.H.E.!.L.H.G.K.D._ 8 n ^ ^ &.=.<.3.",
"o.m.M.4.4 z.wX^.R.^.@X@X@X XQ. XT.^.Q.T.XXP.P.H.k 6 :.^.K.H.K.H.D.G.F.F.9 1 &.9X XI.I.I.H.}.}.H.!.L.H.I.Y.K.1.=.8 h ` / -.:.H.5.",
"$.g.m.2.4 4.]./.^.^.].$X$X].@X/.^././.!.!.K.P.L.~ 6 -.L.L.L.K.L.G.J.G.J.` , &.#XH.H.F.7.L.^.L.-..XT.F.7.H.Y.6.:.5 6 ^ } =.6.H.k.",
"$.5.4...4 <.].m.Q.Q.Q.].Q.]./.@X/.^.Q.I.L.P.!.H.0 ( 6.P.!.L.T.H.J.F.L.L.} 9 -.|.H.H.H.F.H.K.K.H.6.H.H.I.K.D.1.6.^ 5 ! &.=.H.H.9."
};
