/* XPM */
static char *_86b86dc5e0444f18ab82ff4ef965043K9njcEZhADk5MO0P[] = {
/* columns rows colors chars-per-pixel */
"64 64 41 1 ",
"  c None",
". c black",
"X c #151D1C",
"o c #171E1D",
"O c #1E2C2B",
"+ c #212F2E",
"@ c #233331",
"# c #253130",
"$ c #263534",
"% c #2B3938",
"& c #2F3C3A",
"* c #303E3C",
"= c #30403F",
"- c #3E463E",
"; c #324140",
": c #364342",
"> c #364544",
", c #3F4D4C",
"< c #3D5150",
"1 c #425251",
"2 c #435452",
"3 c #4A5455",
"4 c #4A5B5B",
"5 c #466261",
"6 c #556D6C",
"7 c #69837B",
"8 c #6F8584",
"9 c #768C8A",
"0 c #778E8F",
"q c #739596",
"w c #829697",
"e c #8D999A",
"r c #95A9AA",
"t c #95ADAE",
"y c #9BAFB0",
"u c #A8B9B8",
"i c #AEBBBC",
"p c #BEC6C7",
"a c #D5DDDD",
"s c #DCE3E4",
"d c #F4F4F4",
/* pixels */
"                                                                ",
"                                                                ",
"                                                                ",
"                                                                ",
"                                                                ",
"                            7777777                             ",
"                          77uuaauau33                           ",
"                        77uaaaauaaaau33                         ",
"                       7uadddddadaaaauu3                        ",
"                       7adddddddadaaaauu3                       ",
"                      7udddddddaddaaaauuu3                      ",
"                      7adddddddaddaaaaauu3                      ",
"                     7udddddddadddaaaaauuu3                     ",
"                     7addddddddaddaaaaauuu3                     ",
"                     7dddddddddaddaaaaauuuu3                    ",
"                     7ddddddddaddaaaaaauuuu3                    ",
"                     7ddddddddadaauuaaauuuu3                    ",
"                     7adddddddaaauaauaauuu73                    ",
"                     7aaaaaauaauuaaaauuuu7u3                    ",
"                     7uauaaaau7aaaaauuu77uu3                    ",
"                      7a3--3uu7uuuuuuuuuu7u3                    ",
"                      7au---7ua7uuuuuuuu7u3                     ",
"                      7au---3uaaaaaauuu7773                     ",
"                      7aa---7uau77777uu77.                      ",
"                      37au37uau737u73777.                       ",
"                      .3dddaa777uuu377..                        ",
"                       3addaaa--7u3...                          ",
"                       3u7a7u7--7377.                           ",
"                        337333---.33.                           ",
"                        3u7a7u7-.37u.3                          ",
"                        .........3333.                          ",
"                             3330uaa2.                          ",
"                            3adu0..2u.                          ",
"                           ;auu37a.44,.                         ",
"                           ;u75as754rs.                         ",
"                          ;u<uuq7au48p.                         ",
"                          ;uu75ad75u.ss.                        ",
"                          ;u<ud57au6O@p.                        ",
"                          ;uw::as75w @ps.                       ",
"                         ..;3uu37u73  3p.                       ",
"                      ..33w=33wwu737  .ww3                      ",
"                     .uwu7===.==;7w+   3p.                      ",
"                     .wwu7.=.=>66;u@   .1s,                     ",
"                     .=w=.   =++==ww   .4ws,                    ",
"                      ...   =*7uaauw   .4ws.                    ",
"                            =7us7*u6   .443.                    ",
"                            ==#s7$7.    ...                     ",
"                             #tq%7.                             ",
"                             **s9..                             ",
"                             *is+7y.                            ",
"                            37s9 X73.                           ",
"                            3s9# X77.                           ",
"                            Xy3o  X7.                           ",
"                            Xs9o  Xy7.                          ",
"                            Xs3   Xy7.                          ",
"                            3io    Xy3                          ",
"                            i9o    o9i.                         ",
"                           Xs9o    o39.                         ",
"                           Xss9   X993                          ",
"                          oe9iX                                 ",
"                         oa9diX                                 ",
"                                                                ",
"                                                                ",
"                                                                "
};
