/* XPM */
static char *_5b004fbc7e24cbaaf1d8e7881e91a48TJk4dyrayYHnlOXA[] = {
/* columns rows colors chars-per-pixel */
"64 64 109 2 ",
"   c None",
".  c #3E5974",
"X  c #3E5A74",
"o  c #3F5A74",
"O  c #3F5B75",
"+  c #405C77",
"@  c #485C72",
"#  c #485E76",
"$  c #606372",
"%  c #F49225",
"&  c #F59225",
"*  c #F99526",
"=  c #FA9526",
"-  c #FB9526",
";  c #FB9626",
":  c #FC9626",
">  c #FD9727",
",  c #FE9727",
"<  c #FF9827",
"1  c #F5942D",
"2  c #F9952C",
"3  c #F29231",
"4  c #F79530",
"5  c #FFA63D",
"6  c #FFA63E",
"7  c #FFAE47",
"8  c #FFAE48",
"9  c #FFB34D",
"0  c #FFBA55",
"q  c #FFBB56",
"w  c #FFC15D",
"e  c #FFD671",
"r  c #FFD672",
"t  c #FFD673",
"y  c #FFD774",
"u  c #FFD775",
"i  c #FFD776",
"p  c #FFD777",
"a  c #FFD87C",
"s  c #FFD87E",
"d  c #FFD981",
"f  c #FFD982",
"g  c #FFDA83",
"h  c #FFDA85",
"j  c #FFDA86",
"k  c #FFDB87",
"l  c #FFDB89",
"z  c #FFDC8D",
"x  c #FFDC90",
"c  c #FFDD91",
"v  c #FFDE94",
"b  c #FFDE95",
"n  c #FFDE97",
"m  c #FFDE98",
"M  c #FFDE99",
"N  c #FFDF99",
"B  c #FFDF9C",
"V  c #FFE09D",
"C  c #FFE09E",
"Z  c #FFE1A3",
"A  c #FFE1A4",
"S  c #FFE2A6",
"D  c #FFE3A9",
"F  c #FFE4AD",
"G  c #FFE4AE",
"H  c #FFE5B2",
"J  c #FFE6B6",
"K  c #FFE7B7",
"L  c #FFE7BA",
"P  c #FFE8B9",
"I  c #FFE8BB",
"U  c #FFE9BF",
"Y  c #FFE9C0",
"T  c #FFEAC3",
"R  c #FFEBC4",
"E  c #FFEBC7",
"W  c #FFECC9",
"Q  c #FFECCA",
"!  c #FFECCB",
"~  c #FFEDCB",
"^  c #FFEFD1",
"/  c #FFEFD4",
"(  c #FFF0D3",
")  c #FFF1D9",
"_  c #FFF2DA",
"`  c #FFF3DC",
"'  c #FFF3DE",
"]  c #FFF4E1",
"[  c #FFF5E3",
"{  c #FFF5E4",
"}  c #FFF6E8",
"|  c #FFF8EB",
" . c #FFF8EC",
".. c #FFF8ED",
"X. c #FFFAF1",
"o. c #FFFAF2",
"O. c #FFFBF2",
"+. c #FFFBF4",
"@. c #FFFBF5",
"#. c #FFFCF6",
"$. c #FFFCF7",
"%. c #FFFDF8",
"&. c #FFFDF9",
"*. c #FFFDFA",
"=. c #FFFEFB",
"-. c #FFFEFC",
";. c #FFFEFD",
":. c #FFFFFE",
">. c white",
/* pixels */
"                                                                                                                                ",
"                                                                                                                                ",
"                                                                                                                                ",
"                                                                                                                                ",
"                          + .                                                                     . +                           ",
"                        . + +                                                                     . + o                         ",
"                        . + +                                                                     O + o                         ",
"                        . + +                                                                     . + o                         ",
"                        . + +                                                                     o + o                         ",
"                        . + +                                                                     o + o                         ",
"                        . + +                                                                     . + +                         ",
"                        . + +                                                                     . + .                         ",
"                        . + +                                                                     o O O                         ",
"                        . + +                                                                     O + .                         ",
"                        . + +                                                                     o + O                         ",
"                        . + +                                                                     o + o                         ",
"                        . $ #                                                                     @ $ .                         ",
"                        1 < 4                                                                     2 < 3                         ",
"                      ; < < < ,                                                                 < < < < ;                       ",
"                      ; < < < <                                                                 < < < < ;                       ",
"                      ; < < < < %                                                             % < < < < ;                       ",
"  < < < < < < < < < < < < < < < < < < < < < < < < < < < < < < < < < < < < < < < < < < < < < < < < < < < < < < < < < < < < <     ",
"  < < < < < < < < < < < < < < < < < < < < < < < < < < < < < , < < < < < < < < < < < < < < < < < < < < < < < < < < < < < < <     ",
"  > < < < < < < < < < < < < < < < < < < < < < < < < < < < < , , < < < < < < < < < < < < < < < < < < < < < < < < < < < < < <     ",
"  > < < < 5 9 9 9 9 9 9 9 9 9 9 9 9 9 9 9 9 9 9 9 9 9 9 9 9 9 9 9 9 9 9 9 9 9 9 9 9 9 9 9 9 9 9 9 9 9 9 9 9 9 9 9 9 5 < < <     ",
"  > < < < q r e e e e e e e e e r r e r e e e e e e e e e e e e r r e e e e e e e e e e e e e e e e e r e e e e r r 0 < < <     ",
"  > < < < q e e r r e e r r r r e e e e r r r r e e e e e e r r r e e r r r e e e e r r e e e e e e r r e e e e r e 0 < < <     ",
"  > < < < q e e r r z Z Z Z Z Z Z Z Z v r r z Z Z V e e r r d A Z Z y r e n Z Z a r r z Z Z Z Z Z Z Z Z Z z r r e e 0 < < <     ",
"  > < < < q e e e e / :.:.:.:.:.:.:.:.` r r n =.:.:.D r r r { :.:._ e e e } :.:.n e e W :.:.:.:.:.:.:.:.:.~ r r e e q < < <     ",
"  > < < < q e e e e / :.:.:.:.:.:.:.:._ r r r U :.:.#.h r T :.:.X.a e e e { :.:.n e e R :.:.:.:.:.:.:.:.:./ r r e e 0 , < <     ",
"  > < < < q r r e e ( :.:./ J J J J J Z e e e r ] :.:.] V :.:.:.B r r e r } :.:.n e e B J J J =.:.:.L J J B e e e e q , < <     ",
"  > < < < q r r e e / :.:.G r r r r r r e e e e h #.:.:.=.:.:.R r r r r r } :.:.n e e r r r r @.:.:.r r e e e e e e q < < <     ",
"  , < < < q e e r r / :.:.X.| | | ....d e e e e r D :.:.:.:.] r r e e e e } :.:.n e e e e e r @.:.:.y r e e e e e e 0 < < <     ",
"  , < < < q e e r r / :.:.:.:.:.:.:.:.l e e e e r r _ :.:.:.v e e e e e e { :.:.n e e e e e r @.:.:.y r e e e e e e 0 < < <     ",
"  , < < < q e e r e / :.:.X...| ....} d e e e e r z =.:.:.:./ r e e e e r } :.:.n e e e e e e #.:.:.y r e e e e e e 0 < < <     ",
"  , < < < q e e e e / :.:.H r r r r e e e e e e y { :.:.:.:.:.F e e e e r } :.:.n e e e e e e X.:.:.r r e e e e e e 0 < < <     ",
"  , < < < q e e e e / :.:.I l l h l l d e e e r Q :.:...U :.:.=.h r r r r } :.:.n e e e e e r @.:.:.y r r r e e e e q < < <     ",
"  , < < < q e e e e / :.:.:.:.:.:.:.:.` e e e Z :.:.=.n r ` :.:.{ r e r r { :.:.n e e e e r r #.:.:.r r e r e e e e 0 , < <     ",
"  ; < < < q e e r r / :.:.:.:.:.:.:.:.` r e d @.:.:.L r r d @.:.:.R r r r } :.:.n r e e e e e X.:.:.y r e e e e e e q , < <     ",
"  , < < < q e e e r G W W W W W W ~ W H r r D ~ W U r r r r V W ! R y r r L ~ W h e e e e e e T W ~ y r e e e e e e q < < <     ",
"  < < < < q r r r e e e e e e e r r e e e e e e r e e e e e e e r r r r r e e e e e e e r e e e e e e e e e r r e e 0 < < <     ",
"  > < < < q r r r r e e e e e e r r r r e e e e r r e e e e e e r r e r r r e e e e e e r r e e e e e e e e e r e e 0 < < <     ",
"  > < < < 7 w w w w w w w w w w w w w w w w w w w w w w w w w w w w w w w w w w w w w w w w w w w w w w w w w w w w 7 < < <     ",
"  > < < < < < < < < < < < < < < < < < < < < < < < < < < < < < < < < < , < < < < < < < < < < < < < < < < < < < < , < < < < <     ",
"  , < < < < < < < < < < < < < < < < < < < < < < < < < < < < < < < < < < < < < < < < < < < < < < < < < < < < < < < < < < < <     ",
"  , < < < < < < < < < < < < < < < < < < < < < < < < < < < < < < < < < < < < < < < < < < < < < < < < < < < < < < < < < < < <     ",
"    < < < < < < < < < < < < < < < < < < < < < < < < < < < < < < < < < < < < < < < < < < < < < < < < < < < < < < < < < < < <     ",
"                                                                                                                                ",
"                                                                                                                                ",
"                                                                                                                                ",
"                                                                                                                                ",
"                                                                                                                                ",
"                                                                                                                                ",
"                                                                                                                                ",
"                                                                                                                                ",
"                                                                                                                                ",
"                                                                                                                                ",
"                                                                                                                                ",
"                                                                                                                                ",
"                                                                                                                                ",
"                                                                                                                                ",
"                                                                                                                                ",
"                                                                                                                                ",
"                                                                                                                                "
};
