/* XPM */
static char *a2165a12cc234a6cebbf1efe3a8d4064Eh9rjFqfNnBNVdd0[] = {
/* columns rows colors chars-per-pixel */
"64 64 41 1 ",
"  c None",
". c black",
"X c #151D1C",
"o c #171E1D",
"O c #1E2C2B",
"+ c #212F2E",
"@ c #233331",
"# c #253130",
"$ c #263534",
"% c #2B3938",
"& c #2F3C3A",
"* c #303E3C",
"= c #30403F",
"- c #3E463E",
"; c #324140",
": c #364342",
"> c #364544",
", c #3F4D4C",
"< c #3D5150",
"1 c #425251",
"2 c #435452",
"3 c #4A5455",
"4 c #4A5B5B",
"5 c #466261",
"6 c #556D6C",
"7 c #69837B",
"8 c #6F8584",
"9 c #768C8A",
"0 c #778E8F",
"q c #739596",
"w c #829697",
"e c #8D999A",
"r c #95A9AA",
"t c #95ADAE",
"y c #9BAFB0",
"u c #A8B9B8",
"i c #AEBBBC",
"p c #BEC6C7",
"a c #D5DDDD",
"s c #DCE3E4",
"d c #F4F4F4",
/* pixels */
"                                                                ",
"                                                                ",
"                                                                ",
"                                                                ",
"                                                                ",
"                            7777777                             ",
"                          33uauaauu77                           ",
"                        33uaaaauaaaau77                         ",
"                       3uuaaaadadddddau7                        ",
"                      3uuaaaadaddddddda7                        ",
"                     3uuuaaaaddadddddddu7                       ",
"                     3uuaaaaaddaddddddda7                       ",
"                    3uuuaaaaadddadddddddu7                      ",
"                    3uuuaaaaaddadddddddda7                      ",
"                   3uuuuaaaaaddaddddddddd7                      ",
"                   3uuuuaaaaaaddadddddddd7                      ",
"                   3uuuuaaauuaadadddddddd7                      ",
"                   37uuuaauaauaaaddddddda7                      ",
"                   3u7uuuuaaaauuaauaaaaaa7                      ",
"                   3uu77uuuaaaaa7uaaaauau7                      ",
"                   3u7uuuuuuuuuu7uu3--3a7                       ",
"                    3u7uuuuuuuu7au7---ua7                       ",
"                    3777uuuaaaaaau3---ua7                       ",
"                     .77uu77777uau7---aa7                       ",
"                      .77737u737uau73ua73                       ",
"                       ..773uuu777aaddd3.                       ",
"                         ...3u7--aaadda3                        ",
"                          .7737--7u7a7u3                        ",
"                          .33.---333733                         ",
"                         3.u73.-7u7a7u3                         ",
"                         .3333.........                         ",
"                         .2aau0333                              ",
"                         .u2..0uda3                             ",
"                        .,44.a73uua;                            ",
"                        .sr457sa57u;                            ",
"                        .p84ua7quu<u;                           ",
"                       .ss.u57da57uu;                           ",
"                       .p@O6ua75du<u;                           ",
"                      .sp@ w57sa::wu;                           ",
"                      .p3  37u73uu3;..                          ",
"                     3ww.  737uww33=w33..                       ",
"                     .p3   +w7;==.===7uwu.                      ",
"                    ,s1.   @u;66>=.=.7uww.                      ",
"                   ,sw4.   ww;=++=   .=w=.                      ",
"                   .sw4.   wuaau7==   ...                       ",
"                   .344.   6u*7su7=                             ",
"                    ...    .7$7s#==                             ",
"                            .7%qt#                              ",
"                            ..9s&*                              ",
"                           .y7+si&                              ",
"                          .37X 9s73                             ",
"                          .77X #9s3                             ",
"                          .7X  o3yX                             ",
"                         .7yX  o9sX                             ",
"                         .7yX   3sX                             ",
"                         3yX    Xi3                             ",
"                        .i9o    o9i                             ",
"                        .93o    o9sX                            ",
"                         399o   9ssX                            ",
"                                Xi9eo                           ",
"                                Xid9ao                          ",
"                                                                ",
"                                                                ",
"                                                                "
};
