/* XPM */
static char *c21bd539b3d1449bf4833e02bc27d6f18LLYr5yRY3EXtmPN[] = {
/* columns rows colors chars-per-pixel */
"64 64 49 1 ",
"  c None",
". c black",
"X c #151D1C",
"o c #171E1D",
"O c #182221",
"+ c #1D2625",
"@ c #1E2C2B",
"# c #212F2E",
"$ c #233331",
"% c #253130",
"& c #263534",
"* c #2B3938",
"= c #303E3C",
"- c #30403F",
"; c #3E463E",
": c #324140",
"> c #364342",
", c #364544",
"< c #3A4847",
"1 c #425251",
"2 c #435452",
"3 c #4A5455",
"4 c #4A5B5B",
"5 c #56515B",
"6 c #466261",
"7 c #556D6C",
"8 c #5E7272",
"9 c #69837B",
"0 c #6D8180",
"q c #6F8584",
"w c #768C8A",
"e c #778E8F",
"r c #739596",
"t c #799797",
"y c #829697",
"u c #8D999A",
"i c #8BA3A4",
"p c #95A9AA",
"a c #95ADAE",
"s c #9BAFB0",
"d c #97B1B2",
"f c #A4B8BA",
"g c #A8B9B8",
"h c #AEBBBC",
"j c #BEC6C7",
"k c #BECBCC",
"l c #D5DDDD",
"z c #DCE3E4",
"x c #F4F4F4",
/* pixels */
"                                                                ",
"                                                                ",
"                                                                ",
"                                                                ",
"                           999999333                            ",
"                         99gglllllgg33                          ",
"                        9glxxxxlxxxxlg3                         ",
"                       9glxxxxlxxxxxxl93                        ",
"                      9ggxxxxxlxxxxxxlg93                       ",
"                     9gglxxxxxxlxxxxxxlg93                      ",
"                     9gglxxxxxxlxxxxxxlgg3                      ",
"                    99gllxxxxxxlxxxxxxlgg93                     ",
"                    9ggllxxxxxxxlxxxxxllgg3                     ",
"                    9ggllxxxxxxlxxxxxxllgg3                     ",
"                    9ggllxxxxllxlllxxxllgg3                     ",
"                    3ggllxxxlxxxxxxlxxllgg3                     ",
"                    3gglllxlxxxxxxxxllllg93                     ",
"                    39glllglxxxxxxxlglllg33                     ",
"                    33gglglllllllllllglgg33                     ",
"                    33gglglllllllllllglgg33                     ",
"                    339gglllllllllllllgg933                     ",
"                     3g9ggglllllllllggg9g3                      ",
"                     3gg9gggglllllgggg9gg3                      ",
"                     .9ggggggggggggggggg9.                      ",
"                     .;gg9ggggggggggg9gg;.                      ",
"                      .9g99ggg;;;ggg99g9.                       ",
"                      .;;g;99;393;99;g;;.                       ",
"                       .;;;;;3gl93;;;;;.                        ",
"                        .;;339993933;;.                         ",
"                      ...99333gl933399...                       ",
"                     <<gg..g39993939..gg..                      ",
"                     :=22e2...gx9...2e22p.                      ",
"                    :8z.elglx.393.xlgle.zp.                     ",
"                    :p0k.lxlg2gl92glxl.k0j.                     ",
"                   :pz3 #elg9999399gle#..z.                     ",
"                   :zp3  #eg29gl992ge#  .z1                     ",
"                   3z3   #...l993l...@  .i1.                    ",
"                  :z8.   3y>6p9xgg96y@  .$q.                    ",
"                  :p3.    39g@393&g9@   .qz.                    ",
"                 .z3.     33999lg993@   .zy.                    ",
"                 .p$      ###:399:###  .jjq$                    ",
"                .8p$     3xx=:9lg-:xl$#jq..                     ",
"               .zp84.   @9glx=399-x999#q.                       ",
"               .zy83.   @gr=gxg9gxg=zg#.                        ",
"               ..8y.    +899&9g9g9=99z.3                        ",
"                 33      +93.q7fq3**z3.                         ",
"                         +933@@%O*9*a.                          ",
"                         +99&     %a9.                          ",
"                         +9e9=    ,z3.                          ",
"                         +353%   Otzd.                          ",
"                          o33X   Og0x.                          ",
"                          o39X   O8593                          ",
"                          o39X   Xsr3                           ",
"                          o39X   Xhw.                           ",
"                          o39X   Xhw.                           ",
"                         .399X   Xhw.                           ",
"                         o333X   Xzw.                           ",
"                          X33X   5zw.                           ",
"                                 5zh3                           ",
"                                 XuuhxX                         ",
"                                 XuxuX                          ",
"                                                                ",
"                                                                ",
"                                                                "
};
