/* XPM */
static char *d8858a78b8984d6a93deef37a20615d2c9cX8rS3zXYDHCca[] = {
/* columns rows colors chars-per-pixel */
"64 64 212 2 ",
"   c #1A1717",
".  c #1C1B1B",
"X  c #231D15",
"o  c #231D1B",
"O  c #24221E",
"+  c #2C241C",
"@  c #3D2816",
"#  c #33261E",
"$  c #39271B",
"%  c #35291E",
"&  c #3A2A1C",
"*  c #1E1E22",
"=  c #211F25",
"-  c #1E2122",
";  c #1F232A",
":  c #232424",
">  c #2A2624",
",  c #252A25",
"<  c #2B2925",
"1  c #23262A",
"2  c #2A272A",
"3  c #252A2B",
"4  c #2B2A2C",
"5  c #322722",
"6  c #342B23",
"7  c #3A2D23",
"8  c #332D2A",
"9  c #3C3125",
"0  c #35312D",
"q  c #3D332A",
"w  c #3E382B",
"e  c #262D32",
"r  c #2B2D33",
"t  c #2D2E38",
"y  c #332E31",
"u  c #2D3135",
"i  c #2D323A",
"p  c #333335",
"a  c #3B3636",
"s  c #393A36",
"d  c #34353B",
"f  c #39363B",
"g  c #35393D",
"h  c #3B3A3D",
"j  c #432E17",
"k  c #442E1B",
"l  c #4B2E1C",
"z  c #46301F",
"x  c #4B321E",
"c  c #53341E",
"v  c #5E391D",
"b  c #432F20",
"n  c #4B2E20",
"m  c #443324",
"M  c #4C3524",
"N  c #463827",
"B  c #4D3826",
"V  c #42352C",
"C  c #4B362A",
"Z  c #443A2C",
"A  c #4D3B2B",
"S  c #533622",
"D  c #543A24",
"F  c #5C3C25",
"G  c #54362A",
"H  c #543B2A",
"J  c #5B3E2A",
"K  c #433A32",
"L  c #4D3C31",
"P  c #433D3D",
"I  c #533E33",
"U  c #623E25",
"Y  c #613F29",
"T  c #5F4026",
"R  c #56412D",
"E  c #5D422C",
"W  c #4E4235",
"Q  c #43423D",
"!  c #544232",
"~  c #5D4432",
"^  c #5E4934",
"/  c #53473D",
"(  c #5C4C3A",
")  c #5F503D",
"_  c #644126",
"`  c #6B4326",
"'  c #64432B",
"]  c #6B462C",
"[  c #64482E",
"{  c #6D492E",
"}  c #71462B",
"|  c #734B2D",
" . c #7A4E2E",
".. c #77502E",
"X. c #7C512F",
"o. c #644631",
"O. c #694631",
"+. c #644A34",
"@. c #6C4B33",
"#. c #654B39",
"$. c #6A4E39",
"%. c #734D33",
"&. c #794E33",
"*. c #734F38",
"=. c #7B4D38",
"-. c #6D5137",
";. c #6C523C",
":. c #755135",
">. c #7B5234",
",. c #7A5A36",
"<. c #75533A",
"1. c #7B553A",
"2. c #7D593D",
"3. c #333641",
"4. c #363A42",
"5. c #3C3D43",
"6. c #363B49",
"7. c #3C3E4A",
"8. c #413E42",
"9. c #443E45",
"0. c #3E4045",
"q. c #3E424B",
"w. c #3E4451",
"e. c #434245",
"r. c #4A4545",
"t. c #4A4945",
"y. c #43444B",
"u. c #49474C",
"i. c #45484D",
"p. c #4B4A4D",
"a. c #534C4D",
"s. c #424651",
"d. c #464A53",
"f. c #4B4C53",
"g. c #434659",
"h. c #474C5A",
"j. c #4A4E5B",
"k. c #504E53",
"l. c #524F59",
"z. c #4E5154",
"x. c #4D515B",
"c. c #535255",
"v. c #53545C",
"b. c #595758",
"n. c #55595E",
"m. c #5A595C",
"M. c #6C5442",
"N. c #725643",
"B. c #7C5B42",
"V. c #785A47",
"C. c #605A5F",
"Z. c #4A4C61",
"A. c #4F5463",
"S. c #525662",
"D. c #5B5663",
"F. c #555963",
"G. c #5B5C64",
"H. c #565E6C",
"J. c #5B5E6B",
"K. c #615F65",
"L. c #5E6166",
"P. c #56616C",
"I. c #5D616D",
"U. c #5D6070",
"Y. c #626165",
"T. c #63646C",
"R. c #68676B",
"E. c #696A6D",
"W. c #626572",
"Q. c #646676",
"!. c #666974",
"~. c #6A6B74",
"^. c #656A7B",
"/. c #6B6E7A",
"(. c #6D727C",
"). c #71747D",
"_. c #7A7578",
"`. c #825534",
"'. c #835836",
"]. c #895934",
"[. c #84573A",
"{. c #845A3B",
"}. c #895B3B",
"|. c #825D41",
" X c #8C5F41",
".X c #825E49",
"XX c #856146",
"oX c #8C6244",
"OX c #85644C",
"+X c #906444",
"@X c #906C51",
"#X c #AD8262",
"$X c #6D6F81",
"%X c #6C7282",
"&X c #727583",
"*X c #747986",
"=X c #7A7D85",
"-X c #777D89",
";X c #7B7E8B",
":X c #7A7C91",
">X c #7C818E",
",X c #88868A",
"<X c #828593",
"1X c #838992",
"2X c #8A8D96",
"3X c #8E919D",
"4X c #8B94A5",
"5X c #9A9DA7",
"6X c #939BB6",
"7X c #9CA1AC",
"8X c #A0A6B9",
"9X c #B7BCC9",
/* pixels */
"I.h.g.q.i.x.Z.w.Z.g.v.u p.P e.e.q.7.y.y.j.T.f.g.L.W.I.I.F.n.H.U.P.F.x.h.i.z.z.z.z.w.P.n.z.i.z.n.c.i.h s g S.D.c.C.u.f.i.u.e.u.m.",
"I.x.w.d i q.x.d.q.q.q.u h 8.P e.9.5.7.q.q.i.e.e.e.y.y.e.i.0.q.q.w.z.z.w.q.w.d.w.q.q.w.i.w.d.d.d.p.t.g s t j.l.9.P a 4 4 p h P y.",
"P.w.d (.%X%Xw.3.g 4.s.e P P e.r.y.i.y.q.y.i.u.u.r.t.t.e.0.0.w.i.i.x.d.i.q.q.w.q.0.q.q.w.h.d.d.i.e.e.g g r F.v.r.f 4 t T.y.f h e.",
"H.w.h.9X6X6Xi 3 h y.s.u P P r.u.y.i.s.s.s.i.p.f.p.p.t.i.i.w.w.d.d.x.d.q.q.0.0.0.q.0.0.w.d.w.i.0.e.5.g i d J.D.r.a 2 &X8X^.y 5.h ",
"%Xg.Q.4XU.:Xi 3 e.p.G.r a P 9.a.y.d.f.d.f.f.k.f.f.k.i.i.q.i.w.i.w.w.w.w.0.q.q.q.q.0.q.w.d.d.i.0.h d i i i U.T.e.a L.8XH.x.h p 5.",
"P.x.A./.U.*X0.1 h d.A.r f P 9.a.z.i./.d.d.p.f.k.k.c.z.i.i.z.d.i.0.0.q.x.0.q.q.w.q.q.q.w.w.w.q.0.5.0.0.d e L.b.e.a x.%Xj.g.L.d h ",
"H.j.3.I.I.q.i 5.i.y.A.1 h g r.k.z.n.2Xn.G.Y.C.m.b.m.m.n.L.P.d.h.P.L.n.E.z.0.w.>XP.h.w.S.j.n.q.q.0.0.g g g F.c.e.a g j.d.j.4.d 5.",
"H.w.s.4.u i g i.i.s.W.e 3 e e t i e 0.i i 4.e.e.g d s g g g g g g u u u u u g z.i i e i 0.i i u e , - . - i.e.e.p r i i t 3 4.4.",
"H.w.y.5.h h h i.f.y.v.i ; - , 3 3 3 ; e e u r e e e e e e u e e , , e e 4 3 3 3 e e e e e e 1 3 3 - - . e v.m.y.5.g 6.3.f h 0.6.",
"%Xx.q.y.y.i.5.v.&X<X<Xi 1 - - ; : 1 - , : : : : , O , , : + 0 < w 6 6 9 9 > + 6 % % m 7 + 7 : 6 9 9 , - g E.5Xi.d.s.y.q.s.d.H.q.",
"U.i r 3 3 3 r 4.S.~.T.h 4 - , u q + 7 z B z m M z 9 % + z R A M E x B B F 7 m M j M $.x k N + M x M K e g ).n.e.f.s.s.7.7.y.x.r ",
"s.d e 3 4 4 1 1 r t r 5.t 3 0 7 H $ D F _ T D ' c D R + T T ' J :._ [ T [ m H F D F <.{ U R $ J ' F / g i.z.i i u u r 2 4 4 1 2 ",
"f.g h d 4.5.h i.1 = . = i 2 V b ' j ' ' ] ] ] _ c ' R + -.X.@.@.`.| |  .| M ^ F F _ %.%.` { m @.[ Y / 5.g i ; O r 9.d p p p p d ",
"y.5.5.5.9.7.5.p.u *     r O I m | k ' { | ] ] ` T { R 6 :.X.{ [ `.|  . .:.x ^ ' ' F 1.` ' ] m <.J O.C.h e.f e - r k.d f h 5.9.9.",
"v.5.9.7.y.7.0.i.u - X # 7 I H x ] D _ %.{ ] %.} U %.J 6 :...%._ .. . .| :.M +._ U ' %.` U ] G 1.v ` ! R 7 m 5 = p E.5.h 5.8.y.9.",
"m.7.5.s.s.q.e.t.u > # M G o.c D { D ' %.{ ] O.| Y ] ~ 7 <.&.*._ ,. . .| :.x +._ ` Y *.] Y ` H :.T ` R ] l F G 2 f G.8.5.5.5.i.s.",
"D.7.7.s.g.q.e.u.u 2 # C G #.U F ] D [ %.] | { | ' } ' 7 ,.=.>.} ..X.X...>.M $.| ` ' >.} _ T T ~ @._ _ ' c Y H > f T.y.i.9.5.d.d.",
"v.y.w.s.d.q.y.u.t 4 & H F $.U J { D @.%.} ......@.] +.$ ,.=.>.%._ ,.}.| 1.M ;.{ [ ' >.} _ _ E R XX{ _ _ D F G , h ~.9.u.9.3.G.p.",
"T.y.w.3.q.s.t.u.t 1 7 H F $.] U :.D -.| { &. . .<.] $.m ,.=...>.` {.X...=.M N.{ ' { :.{ F _ E +.|.] _ ' D ' M > 5.R.8.9.r.5.p.d.",
"/.y.y.7.F.s.i.t.i 2 7 G F %.] U &.F <.{ `  .`.&.<.| { @ 1.*.>.>.' :.:.| %.H B.{ [ ] { | T ` ^ ;.`.{ _ U c ' G , 8.,X9.r.e.y.u.p.",
"!.q.q.q.g.d.i.z.t , 7 H R %.] Y =.F N.] { &.`...:.| %.$ >.%.&.&.{ %.>.{ :.R B.] ' ] o.| T ` ^ -.[.| ` ` F J G , i.R.e.a.r.9.u.y.",
"W.q.0.q.w.s.i.n.e 3 9 J T :.} U :.D N.' { } `...%.| :.j `.%.`. .:.%.'.{ :.~ B.@.[ ] o.} T ` ^ E [.%.` U F T G > f.v.u.u.f.5.9.y.",
"T.0.0.7.q.w.q.G.e 3 6 J ' %.O.O.:.F $.o.%.` `...| `.`.x '.%. .&.%.&.,.] >.~ <.%.] ] o.} T _ ^ E [.%.] ` ' F J 1 v.v.k.u.p.f y.9.",
"T.0.5.0.w.y.d.G.4 1 6 R ' { ' %.&.E ^ ] } U ,.`.O.`.'.D {.%.&.`.:.%.,.@.<.o.V.| @.' %.] _ T ( ! 1.*.] U o.D H > i.G.b.r.e.e.k.u.",
"5Xy.5.q.x.w.3.q.r - 6 J T @.' ' | ~ J <.} |  .`.] `.[.F [.| &.&.:.@.1.] >.+.B.| @.Y %.] ' F ( ! {.:.{ U [ D H > i.;Xb.f.r.k.y.K.",
";X5.5.q.A.%X6.d.p : 7 H T ] ' ] } [ D [.U &.[.`.' ,.[.E ,.%.:.>.1.] 1.] %.o.;.$.} ' &.` ' F ) ! B.:.{ ` ] D G 4 y.&Xf.f.i.y.y.9.",
"~.5.5.q.s.h.W.I.e : 7 I ' ] ' %.] E M [.} &.{..._ >.}.' @.:.=.`.1.] >.' +.L V $.{.' %.` { H M.W XX:.{ _ T E M < 9._.p.c.f.s.y.8.",
"Y.6.q.q.y.y.y.x.t : 7 J J { ' =.| ' M [.} >.,.%.' X.[.' @ v =.&.1.@.>.[ .XV.N.#X .[ | { F B M.Z |.:.{ ' D @.I 5 6.).d.n.g.q.y.5.",
"L.5.q.7.y.q.5.u.r 1 6 H ' %.' *.| +.m oX} >.&.1.] >.{.E ;.#X}. .1.@.:.' @.OXV.1.O.O.| | F H $.V |.<.{ ` F [ ! 8 y.R.v.L.f.d.s.0.",
"n.5.5.5.q.5.5.i.r 1 7 M O.| ' %.&.O.m  X .>.O.[.} `.{.~ R ].`.| ,.{ >.{ <.$.M.@.[ @.%.' _ R $.q |.2.@.] F [ ! > y.E.c.H.S.x.q.0.",
"j.g 4.4.q.7.7.i.u : 7 M %.@.' %.`.F B ] | X.,.@.:.].[.+.T ,.`. .1.&.>.%.1.$.M.] ] | { F _ [ <.V XX2.@.] { @.J < 0.(.x.F.A.j.s.q.",
"J.p g 4.s.s.y.y.u 1 0 B O.%.] >.>.F [ {.Y &.`.Y ,.`.[.;.~ {.`.| 1.&.=.%.1.M.N.Y { { [ _ | $.B.m XXB.' @.| $.H < y.).x.S.x.h.s.5.",
"/.d 5.y.d.y.p.e.p ; < B ] %.@.=.:.' @. X=.| `.Y >.`.{.N.G 1.| } [.*.,.&.1.;.M.O.{ { [ O.%.:.XXB |.B.' ] @.[ M < i.T.G.F.x.d.y.7.",
").4.7.d.f.y.5.0 u 3 6 C [ %.] 1. .$.<.}.}.] >.' >.X.{.;.#.|.@.&.[.*.1.>.B.#.N.%.{ { [ +.] :.,.A XXXX_ { +.T D 2 5.!.%XW.x.d.e.6.",
"*X5.q.d.y.e.~.>Xu 3 5 M ' | U 2. .%.<.].[.%.=._ %.*.2.+.E [.%.%.{.O.[.:.2./ ~ B.@.O.] @.%.%.+.A XXB.[ :.{ H G 2 F.6XP.i.y.u.5.7.",
"*X7.q.y.8.y.p.d.t 3 5 S [ :.F {.| %.$.].}.] 1.] %.&.[.+.E &.%.%.*.] >.<.<.I OX.X{ [ $.@.&.O.@.A OX:.] *.] F M 2 x.U.0.t.u.i.8.s.",
"/.6.5.e.8.e.f.e.u 2 6 n O...[ 2.| B.M 2.[.| >.] | &.,.$.~  .%.| &.#.=.1.<.L M.%.{ ] *.] :.O.+.Z @X2.+.} O.H M > i.T.9.u.i.y.9.s.",
"<X7.q.i.i.e.l.8.p 1 5 l @.} { B.=.<.m { `.*.1.] ] *.:.@.R `.| | { @.%.*.<.A N.@.{ @.*.[ :.@.' K M.+.2.J o.F C > f.R.r.u.i.u.5.5.",
";Xq.q.f.d.p.D.f.u 1 5 l %.| @.{ %.<.M.XX%.| =.] ] *.>.$.H >.| :.@.$.%.@.<.H V.%.O.<.$.] :.[ $.V ;.@X| ' [ F G 6 k.~.r.y.y.5.8.9.",
"(.y.i.d.p.a.D.k.p 3 # G { | [ @.:.1.O.oX>.%.&.} { :.>.@.j oX .>.| %.+.{ <.I N.<.[ :.%.@.*._ B.m OX X] [ o.S L 6 k.R.r.y.9.8.h 5.",
"W.d.d.u.u.r.D.c.p 1 # S { | ' :.>.<.#.{.%.] =.{ ] :.,.[ H +X:.:.@.$.{ @.<.^ +.<.[ 2.+.O.{ ] <.N B.:.` ] ' S I 7 a.R.u.u.y.5.8.9.",
"5X).s.8.e.r.D.k.r 1 % c ` :._ :.:.<.+.,.] Y &.] ] *.[.{ #.[.%.<.%.O.o.%.[ ^ R B.' ,.%.] O.| +.L B.&.' { F G J 8 a.Q.9.u.y.5.4.5.",
"E.g g 5.P r.D.p.t > & S ` :.T :...;.+.:.] Y %.] O.%.[.O.R >.:.%.<.[ O.{ [ E W B.] 1.O.' ] =.O.L 1.*.' { F o.I 8 a.K.f.s.9.d h 5.",
"!.d d 9.P r.v.d.p 1 7 S ` @.' :.,.O.+.%.] J ] ` ' @.,.+.^ '.| [ <.' $.] E B z <.@.<.$.Y ' ,.@.M {.| U @.[ J Y 8 f.T.9.9.5.y 4.3.",
"T.d h h 8.e.F.f.u 1 & F ' | ' %.1.o.O.&.Y Y ] ] T [ >.%.R 2.{ _ %.E ' @.E M z <.$.{ N.' Y 1.@.z {.%.U { @.S O.8 f.T.z.p.y.h 5.3.",
"G.p h P P e.I.p.u > 9 D U %.F *.[.( %.O.Y J Y o.' [ @.$.^ %.] ` %.E -.@.R B N <.@.T 2._ ' :.O.b XX{ T { @.S @.8 v.&Xz.p.u.h 7.6.",
"I.p P e.h P G.e.p 1 m F F | v %.B.L @.] Y Y Y Y ' [ O.@.~ ] ' ' %.T @.{ R N A <.%.' %.%.F @.O.m XX| E @.@.S @.8 v.Y.z.z.p.4.6.7.",
"W.p f h f h F.h r 1 q F D { F 1..XV %.] D Y O.Y ' $.[ @.~ ` ] _ $.' [ ' R B R -.{ [ @.%.F | +.Z XX:.[ :.$.D @.w m.m.z.z.i.d 6.w.",
"/.f.g P f f v.5.y 1 N F S @.S o.B.C *.U S ' ' Y [ o.] $.E ` O.' { R R T E Z ^ { O.] @.' Y ] ~ L XX1.' 2.O.Y +.V G.c.v.f.0.5.4.h.",
"=Xp p P f a l.P 4 : 7 A J #.M J J ~ *.F S Y ' U o.Y -.+.E ] [ ' [ ' T T T Z ~ { %.o.O.' F [ E ! XX:.G #.F D R 0 G.K.u.y.5.5.4.I.",
"/.u f a h p f.f 1 o o 8 h 9 C J D o.@.F F O.U U [ +.{ +.~ %.{ [ [ [ B E R Z R { O.J T ] F ' E A 2.-./ a.a.a.8.p n.c.e.Q h h h 7.",
"G.u p p a u i.p 1   o < 5.g 9 J H o.@.D F ` F Y ' { -.[ o.] [ +.J F ~ [ T A ~ { ] F [ F F J E A <.+.c.Q 3.y 2 r l.e.K P p p 8 d ",
"m.g h a a y p 4 y 4.Q R.h 1 + H D ~ o.S S U c J J o.{ ' R ] O.O.F H H ;.H B R ] ' G F c v S H B <.+.u.0.E.m.f.8.p p 0 0 8 < > y ",
"$XQ.-X%X*X/.&X)./.-X@XP > > + M G I ! l M F x U H T ] ~ D ' +.E D H w ! A q N D S k B k M M R m o.^ i.4 e.2X!.W.c.F.x.v.G.v.y.p.",
"<XH.J.A.Z.j.n.v.T.,XC.6 O : X I I V # 7 7 & 6 m B A H m % A q Z 9 9 > 9 7 > 6 6 7 6 6 < < # # > q % , > g J.7X>X>X3X<X*X(.W.I.*X",
"J.7.6.8.9.8.P P k.Y.p.> O + > > y y > 2 5 > 6 < > > < > , > , , 2 4 4 > > 1 > > 3 2 > > > : > 2 2 2 2 O a F.:Xi.g h h 5.i.i.e.d ",
"J.7.t r t p p P 8.D.p.6 P r./ r.t.r.Q Q t.Q Q t.t.r.Q e.P P h g g 8.h h 5.s s h 5.h 5.9.7.9.5.5.7.9.h < y S.*Xh y s p p h 5.0.4.",
").7.e ^./.~.p.y f C.G.< y.m.C.~.~.R.Y.E.R.p z.Y._._.Y.m.b.m.c.c.e.,XR.R.E.E.L.Y.Y.T.~.(.&XU.I.!.3Xv.y.e.f k.2Xh g 4 m.-X>X0.g 4.",
"/.t 5.U.Q.(.i.2 p f.d.4 p p a P e.0.Q 5.e.z.z.e.e.5.h g p g h p p b.Q Q i.e.h 5.5.y.i.T.j.f.x.x.s.5.p 2 8 l./.h y i.9X4X8X^.d 7.",
"F.r 5.U.J.G.q.: p G.1X8 8 p h h h 0.0.5.h e.0.e.y.5.5.h s h s s s s 5.e.5.h h e.y.s.i.d.f.f.f.g.0.h r 4 4 j.F.d , *X4Xn.!.q.e 6.",
"&Xd i h.^.h.5.: p 5.J.2 , p h h g 5.5.0.5.5.5.5.5.h d d p p p p s Q e.e.5.h h e.e.i.s.y.y.y.7.5.d f u 2 r x.x.5.4 W.(.H.&Xs.e 4.",
"/.4.1 3 * 1 - r h y.F.4 0 0 4.0.5.g d d h h h h h g f p u p p s a h h h Q h h h 5.y.8.y.e.8.5.d u u 4 3 p W.5X0.g p f.j.q.1 i 6.",
"^.3.6.e e e u d f s.F.g 2 8 f d g 4.3.g g 5.5.g h s p i u p p f g h 5.8.0.h 5.e.5.e.5.e.0.q.5.5.g h y 4 5.x.>Xw.e.d 3 e 1 e 6.7.",
"(.h.w.w.w.7.w.s.h.^.S.3.r 4 d d d 4.d d d 5.5.0.0.i.z.y.g d d h h h 8.y.y.y.e.0.0.0.e.y.y.5.7.5.4.p g u 4.h.%XF.q.h.w.7.s.w.w.H."
};
